<?xml version="1.0" encoding="UTF-8" standalone="no"?>
<svg width="1024px" height="1024px" viewBox="0 0 1024 1024" version="1.1" xmlns="http://www.w3.org/2000/svg" xmlns:xlink="http://www.w3.org/1999/xlink" xmlns:sketch="http://www.bohemiancoding.com/sketch/ns">
    <!-- Generator: Sketch 3.3.3 (12072) - http://www.bohemiancoding.com/sketch -->
    <title>Mask + Rectangle 1 + Oval 3 Copy 3</title>
    <desc>Created with Sketch.</desc>
    <defs>
        <path id="path-1" d="M357.009067,0 L666.990933,0 C769.792,0 821.179733,0 876.5184,17.4933333 C936.9344,39.4837333 984.516267,87.0656 1006.50667,147.4816 C1024,202.811733 1024,254.216533 1024,357.009067 L1024,666.990933 C1024,769.792 1024,821.179733 1006.50667,876.5184 C984.516267,936.9344 936.9344,984.516267 876.5184,1006.49813 C821.179733,1024 769.792,1024 666.990933,1024 L357.009067,1024 C254.208,1024 202.811733,1024 147.4816,1006.49813 C87.0656,984.516267 39.4837333,936.9344 17.4933333,876.5184 C0,821.179733 0,769.792 0,666.990933 L0,357.009067 C0,254.216533 0,202.811733 17.4933333,147.4816 C39.4837333,87.0656 87.0656,39.4837333 147.4816,17.4933333 C202.811733,0 254.208,0 357.009067,0 L357.009067,0"></path>
        <linearGradient x1="50%" y1="0%" x2="50%" y2="100%" id="linearGradient-3">
            <stop stop-color="#33C9FF" offset="0%"></stop>
            <stop stop-color="#17AFE6" offset="100%"></stop>
        </linearGradient>
        <linearGradient x1="113.743715%" y1="54.2320166%" x2="-13.6080598%" y2="46.194889%" id="linearGradient-4">
            <stop stop-color="#F0FCFF" offset="0%"></stop>
            <stop stop-color="#E1F7FF" offset="100%"></stop>
        </linearGradient>
        <filter x="-50%" y="-50%" width="200%" height="200%" filterUnits="objectBoundingBox" id="filter-5">
            <feMorphology radius="110" in="SourceAlpha" operator="dilate" result="shadowSpreadOuter1"></feMorphology>
            <feOffset dx="0" dy="10" in="shadowSpreadOuter1" result="shadowOffsetOuter1"></feOffset>
            <feGaussianBlur stdDeviation="55" in="shadowOffsetOuter1" result="shadowBlurOuter1"></feGaussianBlur>
            <feColorMatrix values="0 0 0 0 0   0 0 0 0 0   0 0 0 0 0  0 0 0 0.007 0" in="shadowBlurOuter1" type="matrix" result="shadowMatrixOuter1"></feColorMatrix>
            <feMerge>
                <feMergeNode in="shadowMatrixOuter1"></feMergeNode>
                <feMergeNode in="SourceGraphic"></feMergeNode>
            </feMerge>
        </filter>
    </defs>
    <g id="Page-1" stroke="none" stroke-width="1" fill="none" fill-rule="evenodd" sketch:type="MSPage">
        <g id="iTunesArtwork@2x" sketch:type="MSArtboardGroup">
            <g id="Mask-+-Rectangle-1-+-Oval-3-Copy-3" sketch:type="MSLayerGroup">
                <mask id="mask-2" sketch:name="Mask" fill="white">
                    <use xlink:href="#path-1"></use>
                </mask>
                <use id="Mask" fill="#D7D7D7" sketch:type="MSShapeGroup" xlink:href="#path-1"></use>
                <g id="Rectangle-1-+-Oval-3-Copy-3" mask="url(#mask-2)" sketch:type="MSShapeGroup">
                    <rect id="Rectangle-1" fill="url(#linearGradient-3)" x="0" y="0" width="1024" height="1024"></rect>
                    <path d="M780.34473,493.235509 C769.981387,345.032807 641.43821,233.291928 493.235509,243.65527 C345.032807,254.018613 233.291928,382.56179 243.65527,530.764491 C254.018613,678.967193 382.56179,790.708072 530.764491,780.34473 C678.967193,769.981387 790.708072,641.43821 780.34473,493.235509 L780.34473,493.235509 Z" id="Oval-3-Copy-3" stroke="url(#linearGradient-4)" stroke-width="110" stroke-linecap="round" stroke-dasharray="1249" filter="url(#filter-5)"></path>
                </g>
            </g>
        </g>
    </g>
</svg>